<svg width="103" height="103" viewBox="0 0 103 103" fill="none" xmlns="http://www.w3.org/2000/svg">
<g clip-path="url(#clip0_24_21668)">
<path d="M19.281 78.014L29.3136 95.3919C31.4785 99.1459 36.3485 100.536 40.1998 98.3094C44.0106 96.1071 45.3203 91.2379 43.1157 87.4239L37.1391 77.0708L42.3149 74.0825C43.2674 73.5315 43.5943 72.3137 43.0441 71.3611L40.4535 66.874C40.7624 66.8141 42.7935 66.4157 78.6116 59.3893C83.0396 59.1489 85.6925 54.3061 83.4559 50.4346L76.835 38.9671L81.0661 32.5586C81.4816 31.9283 81.5065 31.1182 81.1291 30.4645L77.1447 23.5634C76.7673 22.9097 76.0506 22.5269 75.2996 22.5712L67.6352 23.0311L60.2851 10.2998C59.2205 8.45547 57.3131 7.33876 55.184 7.3123C55.1583 7.31152 55.1334 7.31152 55.1077 7.31152C53.0502 7.31152 51.1825 8.33563 50.0759 10.0671L24.0514 43.2199L7.13258 52.9879C0.478209 56.8283 -1.82681 65.3651 2.02838 72.0374C5.5505 78.1385 12.9761 80.5384 19.281 78.014ZM39.6659 89.4169C40.7663 91.3204 40.115 93.7561 38.206 94.8588C36.2909 95.9662 33.852 95.2861 32.7641 93.4005L22.8032 76.1455L29.7042 72.1611C41.2324 92.1312 39.4807 89.0971 39.6659 89.4169ZM35.1469 73.6195L33.1548 70.1689L36.6053 68.1767L38.5975 71.6273L35.1469 73.6195ZM74.3098 26.6217L77.063 31.3905L74.6078 35.1088L69.8624 26.8887L74.3098 26.6217ZM53.4081 12.2515C53.9428 11.3768 54.791 11.2866 55.135 11.2959C55.475 11.2998 56.3225 11.4056 56.8338 12.2912L80.0054 52.4268C80.7602 53.7334 79.8428 55.3762 78.3292 55.4135C78.0576 55.4197 77.9323 55.4688 77.2366 55.5987L52.7257 13.1441C53.24 12.4827 53.3062 12.4188 53.4081 12.2515ZM50.0743 16.5215L73.1036 56.4096L38.3477 63.2266L27.7797 44.9226L50.0743 16.5215ZM5.47891 70.0452C4.60422 68.5316 4.14197 66.8133 4.14197 65.0748C4.14197 61.5216 6.05166 58.2127 9.12477 56.4384L24.6522 47.4736L34.6131 64.7262L19.0857 73.6918C14.3286 76.4373 8.22517 74.8016 5.47891 70.0452Z" fill="black"/>
<path d="M27.4446 64.264C28.3971 63.7146 28.7232 62.4952 28.1738 61.5426C27.6236 60.5909 26.4049 60.2641 25.4524 60.8135C24.4999 61.3637 24.1731 62.5831 24.7232 63.5348C25.2727 64.4874 26.4921 64.8142 27.4446 64.264Z" fill="#F9BC6E"/>
<path d="M21.2731 65.527C20.7229 64.5745 19.5042 64.2476 18.5517 64.7978L15.1012 66.79C14.1502 67.3394 12.9292 67.0118 12.3798 66.0608C11.8296 65.1083 10.611 64.7815 9.65847 65.3316C8.70596 65.8818 8.37912 67.1005 8.9293 68.053C10.569 70.8934 14.2265 71.895 17.0934 70.2405L20.5439 68.2483C21.4964 67.6982 21.8233 66.4803 21.2731 65.527Z" fill="#F9BC6E"/>
<path d="M99.1981 11.573L88.0971 17.7503C87.136 18.2857 86.7897 19.4989 87.3251 20.46C87.859 21.4203 89.0714 21.7681 90.0348 21.232L101.135 15.0546C102.097 14.5192 102.442 13.306 101.907 12.3449C101.372 11.3831 100.159 11.0376 99.1981 11.573Z" fill="#F9BC6E"/>
<path d="M98.0331 32.2061L90.336 30.1439C89.2729 29.859 88.1803 30.4894 87.8955 31.5524C87.6107 32.6154 88.2418 33.7072 89.3048 33.9921L97.0028 36.0543C98.072 36.3414 99.1592 35.701 99.4424 34.6457C99.7273 33.5827 99.0961 32.4901 98.0331 32.2061Z" fill="#F9BC6E"/>
<path d="M78.6906 4.33493L76.626 12.0329C76.3412 13.0959 76.9716 14.1877 78.0346 14.4733C79.0968 14.7573 80.1894 14.1286 80.475 13.0648L82.5388 5.36682C82.8236 4.3038 82.1933 3.21121 81.1302 2.92639C80.068 2.64157 78.9754 3.27191 78.6906 4.33493Z" fill="#F9BC6E"/>
</g>
<defs>
<clipPath id="clip0_24_21668">
<rect width="102" height="102" fill="white" transform="translate(0.15918 0.0688477)"/>
</clipPath>
</defs>
</svg>
