<svg width="16" height="16" viewBox="0 0 16 16" fill="none" xmlns="http://www.w3.org/2000/svg">
<path d="M8.39705 15.1786L9.17753 14.3981C9.51501 14.0641 9.50801 13.5192 9.16345 13.1923L4.92713 9.15633H15.031C15.4986 9.15633 15.8748 8.78015 15.8748 8.31258V7.18758C15.8748 6.72001 15.4986 6.34384 15.031 6.34384H4.92713L9.16345 2.30792C9.50447 1.98097 9.51151 1.43605 9.17753 1.10207L8.39705 0.321592C8.07011 -0.00888997 7.53573 -0.00888997 7.20528 0.321592L0.370908 7.15593C0.0404264 7.48291 0.0404264 8.01726 0.370908 8.34774L7.20528 15.1786C7.53223 15.5091 8.06661 15.5091 8.39705 15.1786Z" fill="#959EAD"/>
</svg>
