<svg width="16" height="16" viewBox="0 0 16 16" fill="none" xmlns="http://www.w3.org/2000/svg">
<path d="M8.7945 15.1786L15.6289 8.34424C15.9594 8.01726 15.9594 7.48291 15.6289 7.15243L8.7945 0.321592C8.46755 -0.00888997 7.93317 -0.00888997 7.60272 0.321592L6.82225 1.10207C6.48476 1.43605 6.49177 1.98097 6.83633 2.30792L11.0726 6.34384H0.968748C0.501178 6.34384 0.125 6.72001 0.125 7.18758V8.31258C0.125 8.78015 0.501178 9.15633 0.968748 9.15633H11.0726L6.83633 13.1923C6.4953 13.5192 6.48827 14.0641 6.82225 14.3981L7.60272 15.1786C7.92967 15.5091 8.46405 15.5091 8.7945 15.1786Z" fill="#959EAD"/>
</svg>
