<svg width="1254" height="868" viewBox="0 0 1254 868" fill="none" xmlns="http://www.w3.org/2000/svg">
<path d="M382.617 647.162C382.617 647.162 380.667 616.873 401.173 603.202C421.688 589.522 428.518 606.132 428.518 606.132C428.518 606.132 434.882 565.937 467.115 563.986C499.348 562.035 513.498 589.522 513.498 589.522C513.498 589.522 549.229 559.458 555.498 593.432C561.758 627.405 393.356 665.73 353.314 674.52C313.264 683.303 382.617 647.162 382.617 647.162Z" fill="#F4E8D8"/>
<path d="M420.154 790.634C467.147 791.903 547.158 775.39 639.875 728.387C719.526 688.007 733.86 661.058 733.86 661.058L647.5 695.361C647.5 695.361 712.27 653.44 721.797 624.861C731.324 596.282 586.831 709.899 507.791 747.445C456.986 771.584 420.154 790.634 420.154 790.634Z" fill="#F4E8D8"/>
<path d="M859.589 758.563C901.846 738.791 960.412 713.76 970.324 702.055C985.26 684.418 1011.31 645.01 1032.56 630.56C1094.04 588.735 1096.93 643.124 1096.93 643.124C1096.93 643.124 1104.83 622.637 1123.83 602.126C1110.77 585.669 1089.21 574.976 1063.06 574.623C1001.83 573.796 971.953 648.655 971.953 648.655C971.953 648.655 970.533 591.28 909.053 633.105C887.808 647.555 834.194 689.653 855.15 754.445C855.873 756.668 856.266 756.147 859.589 758.563Z" fill="#F4E8D8"/>
<path d="M1245.79 695.898C1285.12 640.531 1249.06 583.06 1187.83 582.241C1126.6 581.414 1096.73 656.273 1096.73 656.273C1096.73 656.273 1095.31 598.899 1033.83 640.724C1012.58 655.174 986.536 694.582 971.592 712.219C955.483 731.245 761.791 800.163 761.791 800.163C761.791 800.163 1151.84 828.164 1245.79 695.898Z" fill="#F4E8D8"/>
<path d="M704.325 373.013C702.904 367.185 692.527 361.662 690.673 360.843C688.819 360.024 684.91 361.549 682.526 365.539C677.229 374.426 628.375 389.125 618.061 395.065C607.756 401.006 603.325 441.963 630.044 432.346C682.478 413.481 693.129 407.99 704.325 400.163C718.989 389.919 708.137 388.683 704.325 373.013Z" fill="#C83F37"/>
<path d="M769.416 320.616C769.416 320.616 766.88 313.631 754.175 319.347C741.47 325.063 712.897 349.837 705.914 352.374C698.932 354.91 691.628 356.66 691.628 361.742C691.628 365.29 696.179 366.663 701.259 379.05C705.537 389.478 711.34 395.78 717.985 392.392C738.725 381.803 784.024 340.308 769.416 320.616Z" fill="#1D2436"/>
<path d="M718.932 492.426C718.932 492.426 675.431 526.408 664.957 539.75C654.483 553.092 648.761 540.705 637.332 564.524C625.903 588.342 603.357 643.284 593.831 644.239C584.304 645.195 570.017 638.524 568.115 658.529C566.213 678.534 601.455 710.926 615.742 716.65C630.028 722.366 645.269 710.934 650.037 686.16C654.796 661.387 677.663 631.644 688.137 614.497C698.611 597.349 697.447 592.051 705.601 586.761C721.774 576.252 750.186 557.973 790.38 522.924C827.525 490.524 765.604 443.834 718.932 492.426Z" fill="#273150"/>
<path d="M664.958 539.75C653.488 552.249 648.761 540.705 637.332 564.523C625.903 588.342 599.738 639.053 615.108 638.202C620.822 637.881 665.592 628.673 676.074 611.526C686.548 594.379 699.357 580.611 707.504 575.321C715.257 570.287 716.076 533.608 716.076 533.608C703.796 528.101 677.976 525.557 664.958 539.75Z" fill="#465788"/>
<path d="M889.438 516.245C889.574 523.333 863.104 533.785 824.034 518.781C784.963 503.786 802.741 456.462 841.811 471.458C880.882 486.462 889.229 505.239 889.438 516.245Z" fill="#F2A62F"/>
<path d="M878.025 508.859C875.071 535.006 828.255 527.219 781.8 521.96C735.338 516.702 706.821 515.964 709.775 489.825C712.728 463.687 752.794 446.748 799.257 452.006C845.712 457.256 880.986 482.713 878.025 508.859Z" fill="#273150"/>
<path d="M824.668 480.039C824.668 480.039 802.123 489.777 793.551 518.364C784.979 546.943 785.292 557.531 779.578 570.874C773.863 584.216 760.524 642.963 752.907 662.976C745.29 682.99 750.074 670.643 741.478 680.124C716.71 707.434 766.664 740.886 766.664 740.886C766.664 740.886 792.411 773.728 806.561 760.153C822.116 745.229 817.677 734.11 817.677 723.947C817.677 713.784 830.599 652.115 833.761 636.926C834.821 631.845 837.148 631.419 839.267 625.495C841.386 619.57 838.208 608.452 838.208 605.594C838.208 602.736 858.506 554.529 870.384 531.489C901.822 470.51 824.668 480.039 824.668 480.039Z" fill="#465788"/>
<path d="M815.775 481.95C815.775 481.95 801.167 489.889 792.595 518.468C784.023 547.047 785.292 557.531 779.577 570.866C776.447 578.179 801.801 539.108 818.311 532.758C828.64 528.784 839.219 527.403 850.696 527.676C858.12 527.853 868.265 535.511 868.265 535.511C879.212 515.731 880.946 501.883 875.464 493.694C862.285 474.018 815.775 481.95 815.775 481.95Z" fill="#273150"/>
<path d="M742.305 708.911C739.11 697.817 734.584 698.138 744.175 693.048C751.158 688.85 783.334 702.529 783.334 702.529C783.334 702.529 781.64 695.834 784.04 691.025C784.04 691.025 829.749 723.618 809.362 752.293C787.114 783.594 745.868 721.298 742.305 708.911Z" fill="#273150"/>
<path d="M606.664 755.85C614.955 750.262 635.333 730.41 633.206 715.366C631.079 700.321 620.14 687.132 611.737 686.345C603.333 685.558 601.255 673.701 585.05 658.055C568.846 642.409 544.278 633.049 529.085 644.352C516.05 654.049 511.917 676.624 531.605 696.629C541.814 707.009 547.761 716.385 554.519 725.994C578.974 760.787 598.373 761.437 606.664 755.85Z" fill="#13161F"/>
<path d="M606.664 755.85C621.151 744.474 616.785 730.642 579.504 693.474C569.295 664.012 543.218 639.102 527.222 649.128C514.461 657.124 514.782 682.532 530.329 697.897C542.44 709.866 547.576 716.232 554.511 725.994C578.758 760.104 596.094 764.15 606.664 755.85Z" fill="#EC6043"/>
<path d="M786.247 785.239C786.247 785.239 809.555 760.168 808.367 746.176C807.532 736.326 798.912 721.346 792.283 717.276C789.49 715.566 786.633 717.999 782.756 713.463C767.836 695.994 742.746 676.302 718.62 689.644C698.699 700.659 706.621 721.33 716.429 733.436C726.237 745.542 739.247 756.917 743.878 763.155C760.387 785.384 774.497 793.179 786.247 785.239Z" fill="#13161F"/>
<path d="M782.121 788.113C782.121 788.113 805.613 781.113 762.401 732.561C739.35 686.498 717.351 689.332 708.458 698.54C701.756 705.484 704.622 723.048 716.701 737.474C728.78 751.892 740.426 760.193 744.021 765.234C759.143 786.468 769.408 790.538 782.121 788.113Z" fill="#EC6043"/>
<path d="M794.819 549.271C797.355 545.458 815.775 532.124 837.999 536.571C837.999 536.571 796.721 554.995 786.56 561.345C776.399 567.695 792.275 553.084 794.819 549.271Z" fill="#273150"/>
<path d="M782.122 581.671C782.122 581.671 788.792 586.432 800.221 580.716L794.819 589.611C794.819 589.611 799.266 594.058 807.838 591.2C816.409 588.334 792.917 619.145 782.122 581.671Z" fill="#273150"/>
<path d="M850.279 525.139C861.018 531.329 858.746 550.178 853.24 567.534L871.018 529.795C871.018 529.795 839.532 518.942 850.279 525.139Z" fill="#273150"/>
<path d="M673.843 614.063C673.843 614.063 641.867 658.192 609.281 651.135L673.843 614.063Z" fill="#465788"/>
<path d="M643.047 560.71C643.047 560.71 655.11 562.613 660.824 559.442C666.539 556.263 657.646 567.702 657.646 567.702C657.646 567.702 663.995 579.768 652.565 574.687C641.136 569.605 643.047 560.71 643.047 560.71Z" fill="#273150"/>
<path d="M714.382 454.423C714.382 454.423 723.275 464.586 742.321 467.548C761.367 470.51 801.593 350.68 790.582 332.473C779.578 314.266 733.003 350.254 719.455 382.438C705.915 414.621 714.382 454.423 714.382 454.423Z" fill="#EC5E4D"/>
<path d="M868.161 482.263C868.161 482.263 873.137 492.53 879.277 494.65C880.842 495.565 893.138 494.754 901.927 491.053C910.715 487.344 914.094 482.905 927.225 482.263C940.347 481.629 957.387 483.427 966.705 475.383C976.015 467.339 963.952 465.854 959.505 465.429C957.306 465.22 948.502 471.779 944.368 471.779C932.129 471.779 906.903 478.45 895.787 484.165C888.443 487.947 870.649 479.052 868.161 482.263Z" fill="#F4E8D8"/>
<path d="M944.048 443.2C967.965 447.856 977.917 452.938 971.569 467.757C967.524 477.189 940.356 478.787 929.761 477.181C916.534 475.166 905.523 486.606 883.507 491.471C872.544 493.895 866.572 488.717 865.304 474.958C864.357 464.698 874.157 432.531 892.183 426.47C908.572 420.971 932.667 440.984 944.048 443.2Z" fill="#EC5E4D"/>
<path d="M871.339 318.071C871.339 318.071 850.383 305.684 817.043 308.542C783.703 311.4 772.779 314.467 766.664 328.234C761.583 339.666 768.461 379.05 763.702 407.629C760.476 427 737.666 444.469 730.049 467.332C730.049 467.332 763.766 496.055 824.459 489.135C857.904 485.322 888.595 511.79 889.446 516.237C890.465 511.806 890.546 502.044 891.348 456.213C892.279 403.278 895.337 328.291 871.339 318.071Z" fill="#F6BE4A"/>
<path d="M842.766 313.311C827.525 312.355 815.462 273.613 831.65 408.905C834.66 434.04 733.966 455.579 730.049 467.34C730.049 467.34 763.766 496.063 824.459 489.143C857.904 485.33 888.595 511.797 889.446 516.245C890.465 511.814 890.546 502.052 891.348 456.221C892.279 403.278 858 314.266 842.766 313.311Z" fill="#F2A62F"/>
<path d="M803.672 309.73C803.672 309.73 790.799 319.147 792.805 331.983C794.812 344.82 824.067 335.837 832.221 323.851C840.376 311.866 815.366 305.018 803.672 309.73Z" fill="#F6874E"/>
<path d="M788.784 314.579C791.32 316.907 776.199 350.568 745.283 378.625C722.424 399.377 718.187 423.934 724.535 440.021C731.366 457.321 735.122 460.452 739.143 465.638C743.188 470.864 714.575 458.806 712.681 455.9C706.332 446.163 695.192 390.313 728.348 355.97C740.202 343.688 740.202 326.332 750.997 319.974C761.8 313.624 786.248 312.251 788.784 314.579Z" fill="#972A27"/>
<path opacity="0.5" d="M788.784 314.579C791.32 316.907 776.199 350.567 745.282 378.625C722.424 399.376 718.187 423.933 724.535 440.021C731.365 457.321 735.121 460.452 739.143 465.638C743.188 470.864 714.575 458.806 712.681 455.9C706.332 446.162 701.966 398.782 735.121 364.439C746.976 352.157 740.202 326.332 750.997 319.982C761.8 313.624 786.247 312.251 788.784 314.579Z" fill="#972A27"/>
<path d="M713.853 457.072C713.853 457.072 713.323 460.99 715.442 463.109C717.561 465.229 728.46 470.206 737.241 470.728C737.241 470.728 742.747 467.131 736.607 466.071C730.467 465.012 713.853 457.072 713.853 457.072Z" fill="#F4E8D8"/>
<path d="M793.126 311.721C790.413 308.703 781.93 308.767 774.498 312.002C768.213 314.74 766.351 327.134 759.858 340.926C755.195 350.824 748.67 370.581 737.241 387.094C730.957 396.173 752.482 395.138 783.856 334.881C789.37 324.301 794.908 313.704 793.126 311.721Z" fill="#F4E8D8"/>
<path d="M805.615 308.229C791.641 316.168 792.596 363.171 799.266 364.126C805.936 365.082 839.276 337.129 835.777 312.998" stroke="#913636" stroke-miterlimit="10"/>
<path d="M800.821 368.802C801.287 366.124 800.613 363.77 799.316 363.545C798.019 363.319 796.59 365.306 796.124 367.984C795.658 370.661 796.332 373.015 797.629 373.241C798.926 373.467 800.355 371.479 800.821 368.802Z" fill="#29ACE4"/>
<path d="M793.126 311.721C790.413 308.703 781.93 308.767 774.498 312.002C768.213 314.74 766.351 327.134 759.858 340.926C757.354 346.249 763.912 343.053 771.954 337.129C768.807 345.478 768.775 345.39 768.775 345.39C777.885 338.446 793.624 312.275 793.126 311.721Z" fill="#F4E8D8"/>
<path d="M801.296 295.272C801.296 295.272 803.166 310.083 803.648 318.553C804.129 327.022 809.571 326.572 816.81 325.697C824.058 324.822 831.313 327.335 833.079 315.47C834.845 303.605 837.943 283.696 831.586 280.758C825.238 277.82 800.782 280.027 801.296 295.272Z" fill="#F6874E"/>
<path d="M813.873 293.939C815.503 305.427 831.145 324.606 832.927 316.489C834.709 308.373 837.582 284.563 834.035 282.034C828.617 278.157 812.236 282.452 813.873 293.939Z" fill="#CE6D3E"/>
<path d="M836.73 319.131C836.73 319.131 836.096 381.587 846.257 400.645C856.418 419.703 884.678 421.926 897.062 464.161C902.568 482.938 912.938 454.632 941.51 453.997C954.079 453.716 961.913 458.212 965.219 459.288C972.443 461.656 961.495 476.05 967.122 472.839C989.346 460.139 965.003 446.499 963.309 440.655C960.982 432.611 956.11 404.875 936.213 399.794C915.257 394.439 897.054 358.724 892.608 345.382C888.161 332.039 887.527 318.071 872.286 312.99C857.044 307.908 839.267 307.065 836.73 319.131Z" fill="#972A27"/>
<path opacity="0.5" d="M836.73 319.131C836.73 319.131 836.096 381.587 846.257 400.645C856.418 419.703 858.922 437.428 902.143 445.745C918.652 448.924 911.67 394.929 907.223 381.595C902.777 368.261 887.535 318.079 872.294 312.997C857.052 307.916 839.267 307.065 836.73 319.131Z" fill="#972A27"/>
<path d="M907.111 468.817C907.111 468.817 911.132 471.883 913.356 472.413C916.646 473.2 926.053 461.616 937.49 459.496C948.919 457.377 962.932 458.196 966.063 462.675C968.711 466.456 963.735 473.898 956.961 476.018C954.361 476.828 959.594 478.137 962.25 477.711C967.804 476.812 975.798 467.757 970.509 460.981C966.191 455.458 954.842 452.938 942.145 453.572C931.117 454.126 921.085 459.079 907.111 468.817Z" fill="#F4E8D8"/>
<path d="M862.767 311.721C864.356 307.908 845.624 303.252 836.731 306.431C827.838 309.61 825.936 356.187 839.267 381.595C848.377 398.951 845.222 365.539 849.107 339.04C850.913 326.749 861.178 315.534 862.767 311.721Z" fill="#F4E8D8"/>
<path d="M862.767 311.721C864.356 307.908 845.623 303.252 836.73 306.431C839.267 314.9 845.222 365.539 849.115 339.04C850.913 326.749 861.178 315.534 862.767 311.721Z" fill="#F4E8D8"/>
<path d="M943.413 416.524C943.413 416.524 923.091 410.808 910.394 422.874" stroke="#F4E8D8" stroke-width="4" stroke-miterlimit="10"/>
<path d="M563.669 390.481L673.208 457.176C652.156 410.848 605.051 325.81 594.409 306.703C593.55 305.154 591.279 305.291 590.62 306.936C583.252 325.191 570.026 379.684 570.026 379.684L563.669 390.481Z" fill="#624873"/>
<path d="M868.282 236.517C863.595 268.339 842.077 282.749 825.455 289.251C808.833 295.754 771.777 272.658 766.993 245.098C761.062 217.234 757.233 202.559 802.524 192.918C847.823 183.276 872.431 208.339 868.282 236.517Z" fill="#1D2436"/>
<path d="M862.655 239.037C858.675 266.067 819.644 258.601 819.644 258.601C811.746 256.546 784.602 251.151 778.992 236.227C774.2 223.471 767.98 209.061 806.449 200.873C841.651 193.375 866.179 215.106 862.655 239.037Z" fill="#3D4C6D"/>
<path d="M857.855 252.636C857.855 252.636 861.307 244.055 858.57 234.445C858.57 234.445 870.344 237.785 857.855 252.636Z" fill="#1D2436"/>
<path d="M788.695 218.189C788.695 218.189 769.328 211.052 765.323 215.564C761.318 220.076 761.535 280.701 769.256 295.617C776.977 310.533 825.382 301.871 837.549 291.162C840.382 288.673 846.434 276.479 848.112 261.419C849.115 256.787 837.565 248.093 829.05 237.986C820.534 227.879 788.695 218.189 788.695 218.189Z" fill="#CE6D3E"/>
<path d="M841.153 269.912C840.102 297.64 819.892 302.176 799.153 303.42C778.414 304.656 769.441 298.86 766.062 274.408C762.57 249.176 770.588 232.936 791.328 231.7C812.059 230.447 839.636 244.472 841.153 269.912Z" fill="#F6874E"/>
<path d="M808.744 257.333C808.985 261.331 807.203 263.193 805.205 263.314C803.206 263.434 801.754 261.764 801.513 257.767C801.272 253.769 802.701 250.437 804.699 250.317C806.698 250.196 808.503 253.335 808.744 257.333Z" fill="#34273A"/>
<path d="M778.382 258.416C778.607 262.165 776.937 263.915 775.059 264.028C773.181 264.14 771.817 262.575 771.592 258.818C771.367 255.069 772.708 251.93 774.586 251.818C776.456 251.713 778.157 254.667 778.382 258.416Z" fill="#34273A"/>
<path d="M810.438 247.948C810.438 247.948 807.235 242.176 802.019 243.742" stroke="#34273A" stroke-miterlimit="10" stroke-linecap="round" stroke-linejoin="round"/>
<path d="M776.247 245.789C776.247 245.789 770.067 245.348 768.622 250.245" stroke="#34273A" stroke-miterlimit="10" stroke-linecap="round" stroke-linejoin="round"/>
<path d="M853.772 259.742C856.094 250.863 853.831 242.581 848.719 241.244C843.607 239.907 837.581 246.021 835.26 254.9C832.939 263.779 835.201 272.061 840.313 273.399C845.425 274.736 851.451 268.621 853.772 259.742Z" fill="#F6874E"/>
<path d="M814.643 206.413C798.864 225.711 769.047 232.11 755.869 232.077C744.255 232.053 756.198 200.898 776.56 192.998C796.922 185.107 820.88 198.786 814.643 206.413Z" fill="#1D2436"/>
<path d="M813.44 201.01C818.255 204.357 816.273 214.023 808.15 218.253C794.137 225.559 765.966 230.407 760.275 230.68C749.52 231.194 759.151 210.683 773.799 202.198C790.244 192.677 808.624 197.662 813.44 201.01Z" fill="#3D4C6D"/>
<path d="M790.485 218.278C790.485 218.278 776.728 226.185 765.917 230.592C765.917 230.592 794.522 228.04 790.485 218.278Z" fill="#1D2436"/>
<path d="M831.016 229.356C831.016 229.356 828.962 252.115 831.923 258.77L838.488 268.628L839.957 236.083L831.016 229.356Z" fill="#3D4C6D"/>
<path d="M599.971 386.139L668.232 377.461C668.232 377.461 651.297 323.153 596.054 297.745C515.81 260.841 452.805 344.483 436.031 356.179C415.075 370.79 396.021 373.326 356.019 365.708C356.019 365.708 323.634 424.776 293.785 441.932C293.785 441.932 329.983 449.646 378.243 441.932C422.17 434.915 446.489 416.933 486.202 365.074C509.06 335.227 600.605 325.168 599.971 386.139Z" fill="#F5BF4E"/>
<path d="M353.266 377.147C353.266 377.147 323.634 421.605 313.473 432.411C313.473 432.411 367.408 434.554 396.663 428.597C434.128 420.979 476.474 351.707 506.523 335.861C541.452 317.437 593.493 329.888 604.32 356.187C613.213 377.782 613.952 384.453 613.952 384.453L658.721 378.311C658.721 378.311 627.179 288.858 540.818 299.021C496.418 304.247 456.994 351.105 433.502 368.887C409.994 386.668 383.741 383.497 353.266 377.147Z" fill="#F4E8D8"/>
<path d="M409.36 372.066L389.672 434.305" stroke="#F5BF4E" stroke-width="3" stroke-miterlimit="10"/>
<path d="M461.216 343.054L458.889 390.482" stroke="#F5BF4E" stroke-width="3" stroke-miterlimit="10"/>
<path d="M509.694 348.561L503.979 307.908" stroke="#F5BF4E" stroke-width="3" stroke-miterlimit="10"/>
<path d="M561.125 295.842L549.062 337.129" stroke="#F5BF4E" stroke-width="3" stroke-miterlimit="10"/>
<path d="M596.688 351.74L623.992 321.25" stroke="#F5BF4E" stroke-width="3" stroke-miterlimit="10"/>
<path d="M608.759 380.319L653.207 355.545" stroke="#F5BF4E" stroke-width="3" stroke-miterlimit="10"/>
<path d="M307.75 436.85C308.569 437.035 309.628 437.235 310.904 437.436" stroke="#F4E8D8" stroke-width="6" stroke-miterlimit="10"/>
<path d="M318.963 438.448C343.338 440.896 395.644 441.643 423.96 422.24C458.255 398.742 477.301 351.097 518.579 337.763C540.369 330.723 579.288 327.175 596.688 356.187C601.327 364.753 603.59 373.077 604.69 378.737" stroke="#F4E8D8" stroke-width="6" stroke-miterlimit="10" stroke-dasharray="8.1 8.1"/>
<path d="M605.348 382.743C605.621 384.766 605.685 385.938 605.685 385.938" stroke="#F4E8D8" stroke-width="6" stroke-miterlimit="10"/>
<path d="M664.002 375.558C664.002 375.558 625.871 287.807 550.964 293.306C481.747 298.387 445.55 366.985 414.433 374.603C387.2 381.274 353.467 370.79 353.467 370.79" stroke="#F4E8D8" stroke-width="5" stroke-miterlimit="10" stroke-dasharray="8 8"/>
<path opacity="0.5" d="M436.031 356.187C415.075 370.798 396.021 373.334 356.019 365.716C356.019 365.716 323.634 424.784 293.785 441.94C293.785 441.94 329.983 449.654 378.243 441.94C422.17 434.923 446.489 416.941 486.202 365.082C436.031 377.782 436.031 356.187 436.031 356.187Z" fill="#F5BF4E"/>
<path d="M455.076 279.963C473.206 279.963 487.903 265.46 487.903 247.571C487.903 229.681 473.206 215.179 455.076 215.179C436.947 215.179 422.25 229.681 422.25 247.571C422.25 265.46 436.947 279.963 455.076 279.963Z" fill="#29ACE4"/>
<path d="M469.572 239.431L463.095 264.309C462.436 266.838 459.041 267.311 457.725 265.055L439.329 233.691C438.005 231.435 440.068 228.706 442.604 229.364L467.477 235.842C469.034 236.252 469.981 237.857 469.572 239.431Z" fill="#F6BE4A"/>
<path opacity="0.5" d="M483.657 243.123C483.657 258.007 429.048 258.007 429.048 243.123C429.048 228.24 441.272 216.182 456.352 216.182C471.425 216.182 483.657 228.24 483.657 243.123Z" fill="#29ACE4"/>
<path d="M536.998 240.739C536.998 240.739 560.482 254.828 566.117 264.229L604.625 232.286L575.507 194.708C575.507 194.708 543.571 237.922 536.998 240.739Z" fill="#9A6EA7"/>
<path d="M575.507 194.708C579.576 200.657 573.557 236.019 573.557 236.019C573.139 238.861 570.852 241.06 567.995 241.365L536.998 240.739L575.507 194.708Z" fill="#624873"/>
<path d="M571.751 222.268L598.052 224.772" stroke="#624873" stroke-miterlimit="10"/>
<path d="M561.108 240.113L562.465 259.428" stroke="#624873" stroke-miterlimit="10"/>
<path opacity="0.5" d="M541.589 235.939L593.044 218.085L575.403 195.639C575.403 195.647 548.893 229.155 541.589 235.939Z" fill="#9A6EA7"/>
<path d="M665.936 121.423L640.237 140.071C632.291 145.835 630.517 156.961 636.288 164.909L654.933 190.614C657.116 193.616 660.061 195.744 663.312 196.908C663.352 196.924 663.376 196.948 663.416 196.964L683.915 204.101C685.359 204.606 686.772 203.274 686.363 201.797L683.553 191.826L705.473 175.923C713.418 170.159 715.192 159.033 709.421 151.085L690.777 125.38C685.006 117.425 673.882 115.659 665.936 121.423Z" fill="#F6BE4A"/>
<path d="M682.192 131.614L645.183 158.469L649.655 164.636L686.664 137.78L682.192 131.614Z" fill="#F4E8D8"/>
<path d="M688.903 140.871L651.894 167.727L656.366 173.893L693.375 147.038L688.903 140.871Z" fill="#F4E8D8"/>
<path d="M695.614 150.129L658.604 176.984L663.077 183.15L700.086 156.295L695.614 150.129Z" fill="#F4E8D8"/>
<path opacity="0.5" d="M666.193 126.359L642.597 143.483C635.301 148.781 711.412 160.887 706.115 153.59L688.995 129.988C683.698 122.683 673.489 121.061 666.193 126.359Z" fill="#F6BE4A"/>
<path d="M947.642 113.997L848.128 93.8793C847.469 93.7428 846.723 94.5215 846.458 95.5972L832.204 153.903C831.939 154.979 832.244 156.006 832.886 156.199L930.025 184.858C930.852 185.107 931.775 184.304 932.08 183.076L948.63 116.55C948.935 115.305 948.493 114.165 947.642 113.997Z" fill="#F6BE4A"/>
<path d="M948.774 109.228L849.259 89.1107C848.601 88.9743 847.863 89.753 847.598 90.8287L833.344 149.134C833.079 150.21 833.384 151.238 834.026 151.43L931.165 180.09C931.992 180.338 932.915 179.536 933.22 178.307L949.769 111.781C950.066 110.537 949.625 109.397 948.774 109.228Z" fill="#465788"/>
<path d="M884.333 112.809L903.09 133.777C903.676 134.427 903.347 135.744 902.528 136.049L876.195 145.843C875.472 146.108 874.886 145.313 875.119 144.382L882.696 113.603C882.929 112.672 883.819 112.239 884.333 112.809Z" fill="#EC5E4D"/>
<path opacity="0.5" d="M945.781 110.36L858.835 92.7873C858.265 92.6749 857.615 93.3412 857.382 94.2885L930.387 172.27C931.109 172.487 931.92 171.789 932.185 170.713L946.639 112.584C946.912 111.508 946.527 110.505 945.781 110.36Z" fill="#465788"/>
<path d="M1000.54 168.04C999.7 171.46 995.614 173.346 991.505 172.286C987.468 171.243 984.9 167.743 985.702 164.435C986.505 161.128 990.406 159.177 994.491 160.1C998.648 161.048 1001.39 164.612 1000.54 168.04Z" fill="#F6BE4A"/>
<path d="M1027.61 174.526C1026.66 178.187 1022.38 180.242 1018.13 179.142C1013.95 178.067 1011.36 174.358 1012.25 170.825C1013.14 167.285 1017.23 165.166 1021.45 166.113C1025.76 167.076 1028.55 170.858 1027.61 174.526Z" fill="#F6BE4A"/>
<path d="M997.613 167.855L1007.32 132.83L1033.56 136.876L1024.86 172.335" stroke="#F6BE4A" stroke-width="8" stroke-miterlimit="10" stroke-linecap="round" stroke-linejoin="round"/>
<path d="M1062.61 145.763C1064.08 148.532 1062.16 152.394 1058.38 154.361C1054.67 156.287 1050.55 155.653 1049.11 152.988C1047.66 150.315 1049.42 146.525 1053.09 144.502C1056.84 142.431 1061.12 142.985 1062.61 145.763Z" fill="#F6BE4A"/>
<path d="M1077.26 127.54C1078.3 121.302 1067.35 111.861 1067.35 111.861L1059.42 147.946" stroke="#F6BE4A" stroke-width="8" stroke-miterlimit="10" stroke-linecap="round" stroke-linejoin="round"/>
<path d="M738.749 133.071C735.522 147.232 743.797 160.365 756.743 163.496C769.44 166.571 783.558 159.257 788.928 146.188C794.819 131.835 788.221 115.755 773.333 111.508C758.092 107.165 742.312 117.457 738.749 133.071Z" fill="#EC5E4D"/>
<path d="M751.807 125.597C760.058 117.633 766.03 129.394 766.76 130.935C768.269 130.004 779.987 123.164 782.122 133.777C785.26 149.367 761.792 154.882 759.087 155.468L759.055 155.581C759.055 155.581 759.023 155.548 758.959 155.5C758.878 155.516 758.83 155.524 758.83 155.524L758.862 155.412C756.88 153.654 739.431 137.534 751.807 125.597Z" fill="#F4E8D8"/>
<path d="M780.011 455.362C783.318 451.348 778.502 449.084 763.935 449.293C757.988 449.381 752.49 450.818 744.704 449.124C739.64 448.024 733.645 449.06 735.996 453.86C737.971 457.874 739.913 462.201 749.079 461.928C751.559 461.856 760.195 462.217 764.994 462.643C769.561 463.052 777.852 457.987 780.011 455.362Z" fill="#F6874E"/>
<path d="M563.669 390.481L639.876 528.944L661.787 523.863L766.888 519.416L746.566 463.205C750.684 462.177 753.059 457.867 751.727 453.837L725.482 378.761C723.716 373.398 718.387 370.051 712.785 370.789L563.669 390.481Z" fill="#9A6EA7"/>
<path d="M652.261 472.164C652.261 472.164 642.003 461.335 636.016 466.175C630.029 471.024 632.597 480.433 638.014 486.132C643.432 491.832 652.806 496.705 658.818 490.692C665.937 483.563 652.261 472.164 652.261 472.164Z" fill="#F4E8D8"/>
<path d="M659.878 418.643C655.151 423.989 646.089 460.764 642.413 468.182C636.378 480.352 647.173 489.464 655.431 484.061C662.936 479.156 698.933 471.674 705.602 465.003C708.347 462.257 717.986 452.937 702.745 432.611C687.078 411.731 667.182 410.382 659.878 418.643Z" fill="#F5BF4E"/>
<path d="M703.222 460.431C709.754 453.897 706.065 439.615 694.982 428.529C683.899 417.444 669.619 413.754 663.087 420.287C656.555 426.82 660.244 441.103 671.327 452.189C682.41 463.274 696.69 466.964 703.222 460.431Z" fill="#F4E8D8"/>
<path d="M678.778 455.974C682.48 452.272 683.296 447.085 680.6 444.389C677.904 441.692 672.719 442.508 669.017 446.211C665.315 449.913 664.5 455.1 667.195 457.796C669.891 460.492 675.077 459.677 678.778 455.974Z" fill="#465788"/>
<path opacity="0.5" d="M585.468 388.001C585.468 388.001 738.195 448.867 742.586 450.481C742.586 450.481 746.976 452.094 742.586 450.481C746.117 449.598 748.164 445.897 747.024 442.437L724.471 377.942C722.954 373.334 718.371 370.46 713.563 371.094L585.468 388.001Z" fill="#9A6EA7"/>
<path d="M859.171 418.426C855.576 407.838 858.746 375.815 858.746 347.71C858.746 331.196 870.087 316.634 879.911 318.488C895.578 321.451 898.964 336.27 901.926 355.328C906.1 382.181 907.681 422.464 898.009 443.192C889.117 462.258 862.767 429.015 859.171 418.426Z" fill="#1D2436"/>
<path d="M859.171 418.426C855.576 407.838 858.746 375.815 858.746 347.71C858.746 331.196 870.087 316.634 879.911 318.488C895.578 321.451 873.137 343.471 876.098 362.529C880.272 389.382 891.268 401.937 881.604 422.657C872.711 441.723 862.767 429.015 859.171 418.426Z" fill="#1D2436"/>
<path d="M879.069 416.733C872.295 411.651 861.355 409.227 856.21 412.502C851.114 415.745 849.942 418.499 849.942 418.499C849.942 418.499 840.367 418.86 833.087 425.194C825.872 431.472 785.83 435.783 780.693 446.7C775.477 457.787 770.95 481.123 794.217 485.763C820.302 490.973 824.925 478.972 835.046 476.435C845.472 473.826 886.268 457.433 894.527 445.737C899.599 438.544 890.618 425.403 879.069 416.733Z" fill="#C83F37"/>
<path d="M879.069 416.733C876.003 414.437 888.692 436.144 867.214 451.453C862.374 454.905 850.841 456.029 844.356 459.071C815.968 472.397 783.848 483.684 794.217 485.755C820.302 490.965 824.925 478.964 835.046 476.427C845.472 473.818 886.268 457.425 894.527 445.729C899.599 438.544 890.618 425.403 879.069 416.733Z" fill="#972A27"/>
<path d="M781.271 447.439C788.888 441.089 797.147 441.723 803.712 456.117C803.712 456.117 805.614 447.647 809.852 456.542C814.868 467.083 810.149 485.795 797.155 485.972C781.48 486.181 776.881 451.091 781.271 447.439Z" fill="#972A27"/>
<path d="M792.596 486.983C784.329 488.364 776.102 480.039 774.104 468.905C772.186 458.26 776.632 448.546 784.136 446.748C791.841 444.902 800.325 451.95 803.006 462.988C805.807 474.573 801.103 485.563 792.596 486.983Z" fill="#F4E8D8"/>
<path d="M788.863 483.468C784.024 484.102 778.598 477.246 776.72 468.496C774.914 460.091 777.017 452.778 781.439 451.846C785.958 450.899 791.432 456.896 793.655 465.59C795.967 474.653 793.816 482.826 788.863 483.468Z" fill="#972A27"/>
<path d="M790.693 482.897L776.615 490.836C776.615 490.836 764.127 500.574 756.928 500.149C749.728 499.723 737.569 500.076 733.957 498.776C725.754 495.814 732.689 492.851 732.689 492.851C732.689 492.851 728.299 494.489 723.692 493.221C720.425 492.322 717.536 486.807 723.371 486.076L727.865 485.386C727.865 485.386 714.903 487.079 714.261 481.259C713.804 477.053 717.648 476.178 725.69 476.603C733.732 477.029 750.667 470.197 753.629 469.354C756.59 468.511 762.241 460.877 769.183 454.214C784.449 439.603 801.007 472.573 790.693 482.897Z" fill="#F6874E"/>
<path d="M766.559 466.858C766.559 466.858 768.943 460.026 766.238 458.758C763.541 457.489 755.178 464.794 750.098 466.063C745.017 467.331 722.897 466.384 718.451 467.331C714.004 468.279 714.326 472.413 718.451 473.681C722.576 474.95 730.362 475.744 739.407 474.789C752.16 473.456 750.619 473.015 766.559 466.858Z" fill="#F6874E"/>
<path d="M849.934 418.499C849.934 418.499 862.446 419.061 868.803 423.829C875.151 428.59 864.854 410.246 849.934 418.499Z" fill="#972A27"/>
<path d="M849.428 420.016C849.428 420.016 864.348 427 868.161 442.245C868.161 442.245 871.973 430.492 864.348 425.41C856.731 420.337 850.062 418.113 849.428 420.016Z" fill="#972A27"/>
<path d="M624.635 202.471C624.635 202.471 689.405 232.961 689.405 329.503" stroke="#F6BE4A" stroke-width="7" stroke-miterlimit="10" stroke-linecap="round" stroke-linejoin="round"/>
<path d="M609.394 211.366C609.394 211.366 638.608 221.529 644.957 243.124" stroke="#29ACE4" stroke-width="7" stroke-miterlimit="10" stroke-linecap="round" stroke-linejoin="round"/>
<path d="M653.208 262.808C655.836 262.808 657.967 260.677 657.967 258.048C657.967 255.418 655.836 253.287 653.208 253.287C650.579 253.287 648.448 255.418 648.448 258.048C648.448 260.677 650.579 262.808 653.208 262.808Z" fill="#29ACE4"/>
<path d="M768.943 428.734C768.943 428.734 862.455 339.353 954.209 369.521" stroke="#29ACE4" stroke-width="7" stroke-miterlimit="10" stroke-linecap="round" stroke-linejoin="round"/>
<path d="M1015.96 423.468C1015.96 423.468 951.512 353.771 875.489 390.899" stroke="#F6BE4A" stroke-width="7" stroke-miterlimit="10" stroke-linecap="round" stroke-linejoin="round"/>
<path d="M975.165 379.05C977.793 379.05 979.924 376.918 979.924 374.289C979.924 371.66 977.793 369.529 975.165 369.529C972.536 369.529 970.405 371.66 970.405 374.289C970.405 376.918 972.536 379.05 975.165 379.05Z" fill="#29ACE4"/>
<path d="M972.396 208.211C953.454 198.642 930.347 206.236 920.78 225.182C916.358 233.932 915.612 243.573 917.939 252.364C917.947 252.388 917.947 252.404 917.947 252.428C917.963 252.492 917.979 252.556 917.995 252.612C918.019 252.693 918.036 252.765 918.06 252.845C922.554 269.431 931.335 294.124 935.203 294.678C941.054 295.513 967.307 281.729 975.711 274.93C981.345 271.341 986.128 266.252 989.363 259.854C998.93 240.9 991.337 217.788 972.396 208.211Z" fill="#EC5E4D"/>
<path d="M955.067 271.799C971.237 271.799 984.346 258.687 984.346 242.513C984.346 226.34 971.237 213.228 955.067 213.228C938.897 213.228 925.788 226.34 925.788 242.513C925.788 258.687 938.897 271.799 955.067 271.799Z" fill="#F4E8D8"/>
<path opacity="0.5" d="M920.772 225.181C916.349 233.932 915.603 243.573 917.93 252.363C917.939 252.388 917.939 252.404 917.939 252.428C917.955 252.492 917.971 252.556 917.987 252.612C918.011 252.693 918.027 252.765 918.051 252.845C922.545 269.431 931.326 294.124 935.194 294.678C938.63 295.168 993.528 263.474 971.938 226C950.348 188.527 924.728 217.354 920.772 225.181Z" fill="#EC5E4D"/>
<path d="M995.486 469.877C995.486 469.877 1038.03 450.505 1061.53 421.605C1061.53 421.605 1128.85 421.605 1142.18 422.24C1142.18 422.24 1119.95 483.853 1078.68 516.245C1078.68 516.245 1029.15 526.408 995.486 469.877Z" fill="#F6BE4A"/>
<path d="M1071.19 429.738C1071.19 429.738 1057.97 441.715 1046.87 451.405C1036.56 460.404 1019.97 472.301 1013.27 476.612C1013.27 476.612 1027.36 489.368 1038.67 491.263C1058.67 494.618 1072.33 483.853 1072.33 483.853L1063.23 458.919L1083.12 448.306L1071.19 429.738Z" fill="#9A6EA7"/>
<path d="M1098.14 453.468L1099.67 450.208C1100.85 447.704 1104.24 445.882 1107.69 446.138C1111.71 446.435 1114.37 449.382 1112.93 452.729L1111.06 457.104C1109.56 460.605 1104.87 462.017 1101.22 460.452C1098.12 459.135 1096.93 456.061 1098.14 453.468Z" fill="#9A6EA7"/>
<path opacity="0.5" d="M995.486 469.876C995.486 469.876 1038.03 450.505 1061.53 421.605C1061.53 421.605 1115.19 422.24 1128.53 422.874C1128.53 422.874 1040.89 505.769 995.486 469.876Z" fill="#F6BE4A"/>
<path d="M582.301 128.994L557.917 121.79L550.714 146.179L575.098 153.384L582.301 128.994Z" fill="#F4E8D8"/>
<path d="M736.432 231.727L711.029 206.319L685.627 231.727L711.029 257.134L736.432 231.727Z" stroke="#F4E8D8" stroke-width="3" stroke-miterlimit="10"/>
<path d="M999.381 557.668L981.617 518.841L942.799 536.609L960.562 575.436L999.381 557.668Z" fill="#F4E8D8"/>
<path d="M966.835 537.496L951.76 504.545L918.816 519.624L933.891 552.574L966.835 537.496Z" fill="#F4E8D8"/>
<path d="M562.557 439.353L545.505 406.21L512.369 423.266L529.421 456.409L562.557 439.353Z" stroke="#F4E8D8" stroke-width="3" stroke-miterlimit="10"/>
<path d="M1118.92 231.526L1096.19 187.347L1052.02 210.082L1074.75 254.261L1118.92 231.526Z" stroke="#F4E8D8" stroke-width="3" stroke-miterlimit="10"/>
<path d="M1139.16 242.484L1122.11 209.341L1088.98 226.397L1106.03 259.54L1139.16 242.484Z" fill="#F4E8D8"/>
<path d="M529.046 434.668L516.312 409.919L491.569 422.655L504.303 447.404L529.046 434.668Z" fill="#F4E8D8"/>
<path d="M1077.37 293.658L1064.86 339.377L1014.65 336.96C1005.57 361.951 1025.19 382.815 1053.92 382.855C1083.15 382.887 1106.57 364.56 1113.19 338.815C1119.45 314.426 1104.13 292.976 1077.37 293.658Z" fill="#C83F37"/>
<path d="M1073.26 290.384L1061.44 333.613L1013.95 331.333C1005.37 354.967 1019.85 372.612 1046.9 375.125C1075.51 377.774 1102.63 354.453 1108.89 330.113C1114.81 307.049 1098.57 289.741 1073.26 290.384Z" fill="#29ABE3"/>
<path opacity="0.5" d="M1050.95 333.115L1013.95 331.341C1005.37 354.975 1019.85 372.62 1046.9 375.132C1065.34 376.842 1083.18 367.747 1095.19 354.549C1067.88 354.067 1050.95 333.115 1050.95 333.115Z" fill="#29ACE4"/>
<path d="M1006.56 327.68L1004.97 321.643L1068.67 277.892C1068.67 277.892 1069.57 281.232 1070.26 283.929L1057.72 328.868L1006.56 327.68Z" fill="#EC5E4D"/>
<path d="M1004.97 321.652C1013.85 297.697 1042 278.631 1068.67 277.901L1055.92 324.036L1004.97 321.652Z" fill="#F6BE4A"/>
<path opacity="0.5" d="M1004.97 321.651C1009.47 309.513 1018.91 298.628 1030.62 290.752C1028.5 312.363 1046.73 323.61 1046.73 323.61L1004.97 321.651Z" fill="#F6BE4A"/>
</svg>
